<svg aria-hidden="true" style="position: absolute; width: 0; height: 0; overflow: hidden;" version="1.1" xmlns="http://www.w3.org/2000/svg" xmlns:xlink="http://www.w3.org/1999/xlink">
<defs>


<symbol id="arrowLeft" viewBox="0 0 16 32">
<path fill="" style="" d="M16 0.314l-15.686 15.686 15.686 15.686"></path>
</symbol>
<symbol id="arrowRight" viewBox="0 0 16 32">
<path stroke-linejoin="miter" stroke-linecap="butt" stroke-miterlimit="4" stroke-width="0.3137" d="M0.314 0.314l15.686 15.686-15.686 15.686"></path>
</symbol>

<symbol id="icon-search" viewBox="0 0 32 32">
<path fill="" style="" d="M13.043 0c-7.18 0-13.043 5.863-13.043 13.043s5.863 13.043 13.043 13.043c7.18 0 13.043-5.863 13.043-13.043s-5.863-13.043-13.043-13.043zM13.043 4c5.018 0 9.043 4.025 9.043 9.043s-4.025 9.043-9.043 9.043c-5.018 0-9.043-4.025-9.043-9.043s4.025-9.043 9.043-9.043z"></path>
<path fill="" style="" d="M28.586 31.414c0.781 0.781 2.047 0.781 2.828 0s0.781-2.047 0-2.828l-2.828 2.828zM22.936 20.108l-1.414-1.414-2.829 2.828 1.414 1.414 2.828-2.828zM31.414 28.586l-8.478-8.478-2.828 2.828 8.478 8.478 2.828-2.828z"></path>
</symbol>
<symbol id="icon-logo" viewBox="0 0 34 32">
<path fill="" style="" d="M8.8 9.142c-0.221 0-0.421 0.090-0.566 0.234l-8 8c-0.145 0.145-0.234 0.345-0.234 0.566s0.089 0.421 0.234 0.566l8 8c0.145 0.145 0.345 0.234 0.566 0.234s0.421-0.090 0.566-0.234v0c0.145-0.145 0.234-0.345 0.234-0.566s-0.090-0.421-0.234-0.566l-7.434-7.434 7.434-7.434c0.145-0.145 0.234-0.345 0.234-0.566s-0.090-0.421-0.234-0.566v0c-0.145-0.145-0.345-0.234-0.566-0.234v0z"></path>
<path fill="" style="" d="M24.234 9.377c-0.145 0.145-0.234 0.345-0.234 0.566s0.090 0.421 0.234 0.566l7.434 7.434-7.434 7.434c-0.145 0.145-0.234 0.345-0.234 0.566s0.090 0.421 0.234 0.566v0c0.145 0.145 0.345 0.234 0.566 0.234s0.421-0.090 0.566-0.234l8-8c0.145-0.145 0.234-0.345 0.234-0.566s-0.090-0.421-0.234-0.566l-8-8c-0.145-0.145-0.345-0.234-0.566-0.234s-0.421 0.090-0.566 0.234v0z"></path>
<path fill="" style="" d="M19.628 4.034l-6.869 25.637c-0.093 0.348-0.451 0.555-0.8 0.462s-0.555-0.451-0.462-0.8l6.869-25.637c0.093-0.348 0.451-0.555 0.8-0.462s0.555 0.451 0.462 0.8z"></path>
<path fill="#d9d9d9" style="fill: var(--color3, #d9d9d9)" d="M18.366 3.696c0.093-0.348 0.451-0.555 0.8-0.462s0.555 0.451 0.462 0.8l-0.837 3.123-1.262-0.338 0.837-3.123z"></path>
<path fill="" style="" d="M20.659 5.231c-0.031-0.009-0.067-0.014-0.104-0.014-0.184 0-0.339 0.124-0.386 0.294l-0.001 0.003c-0.009 0.031-0.014 0.067-0.014 0.104 0 0.184 0.124 0.339 0.294 0.386l0.003 0.001 2.523 0.675c0.031 0.009 0.067 0.014 0.104 0.014 0.184 0 0.339-0.124 0.386-0.294l0.001-0.003c0.009-0.031 0.013-0.066 0.013-0.103 0-0.184-0.124-0.339-0.293-0.386l-0.003-0.001z"></path>
<path fill="" style="" d="M14.352 3.541c-0.031-0.009-0.067-0.014-0.104-0.014-0.185 0-0.34 0.125-0.386 0.295l-0.001 0.003c-0.009 0.031-0.013 0.066-0.013 0.103 0 0.184 0.124 0.339 0.293 0.386l0.003 0.001 2.523 0.677c0.031 0.009 0.067 0.014 0.104 0.014 0.184 0 0.339-0.124 0.386-0.294l0.001-0.003c0.009-0.031 0.014-0.067 0.014-0.104 0-0.184-0.124-0.339-0.294-0.386l-0.003-0.001z"></path>
<path fill="" style="" d="M15.516 0.623c-0.12 0.071-0.199 0.199-0.199 0.346 0 0.074 0.020 0.143 0.055 0.203l-0.001-0.002 1.311 2.247c0.071 0.12 0.199 0.199 0.346 0.199 0.074 0 0.143-0.020 0.203-0.055l-0.002 0.001c0.119-0.071 0.198-0.199 0.198-0.345 0-0.074-0.020-0.144-0.055-0.203l0.001 0.002-1.309-2.248c-0.071-0.119-0.199-0.198-0.345-0.198-0.074 0-0.144 0.020-0.203 0.055l0.002-0.001z"></path>
<path fill="" style="" d="M16.433 5.441c-0.032-0.009-0.069-0.015-0.107-0.015-0.073 0-0.141 0.019-0.199 0.053l0.002-0.001-2.258 1.292c-0.121 0.070-0.201 0.199-0.201 0.347 0 0.073 0.020 0.141 0.054 0.2l-0.001-0.002c0.070 0.121 0.199 0.201 0.347 0.201 0.073 0 0.141-0.020 0.2-0.054l-0.002 0.001 2.259-1.291c0.121-0.070 0.201-0.199 0.201-0.347 0-0.073-0.020-0.141-0.054-0.2l0.001 0.002c-0.053-0.091-0.138-0.158-0.239-0.187l-0.003-0.001z"></path>
<path fill="" style="" d="M20.019 6.523c-0.119 0.071-0.198 0.199-0.198 0.345 0 0.074 0.020 0.144 0.055 0.203l-0.001-0.002 1.309 2.248c0.071 0.12 0.199 0.199 0.346 0.199 0.075 0 0.145-0.021 0.204-0.056l-0.002 0.001c0.119-0.071 0.198-0.199 0.198-0.345 0-0.074-0.020-0.144-0.055-0.203l0.001 0.002-1.311-2.248c-0.071-0.119-0.199-0.198-0.345-0.198-0.074 0-0.144 0.020-0.203 0.055l0.002-0.001z"></path>
<path fill="" style="" d="M23.283 2.583c-0.032-0.009-0.068-0.014-0.106-0.014-0.072 0-0.14 0.019-0.199 0.053l0.002-0.001-2.258 1.292c-0.122 0.070-0.202 0.2-0.202 0.348 0 0.073 0.019 0.141 0.053 0.2l-0.001-0.002c0.070 0.121 0.199 0.202 0.347 0.202 0.073 0 0.142-0.020 0.201-0.054l-0.002 0.001 2.258-1.291c0.121-0.070 0.201-0.199 0.201-0.347 0-0.073-0.020-0.141-0.054-0.2l0.001 0.002c-0.053-0.091-0.138-0.158-0.239-0.187l-0.003-0.001z"></path>
</symbol>
<symbol id="icon-arrow-down" viewBox="0 0 11 7">
<path fill="none" style="" stroke="" stroke-width="1.5px" d="M10 1L5.5 6L1 1"></path>
</symbol>
</defs>
</svg>
